<svg xmlns="http://www.w3.org/2000/svg" width="32" height="32" version="1"><path fill="#41b349" fill-rule="evenodd" d="M32 16c0 8.795-7.205 16-16 16S0 24.9 0 16C0 7.205 7.205 0 16 0s16 7.205 16 16z" clip-rule="evenodd"/><path fill="#fff" d="M16 10.186c-2.907 0-5.116 2.326-5.233 5.116-.465-.116-.814-.465-1.279-.465C7.512 14.837 6 16.465 6 18.326c0 1.976 1.628 3.488 3.488 3.488h11.977c2.442 0 4.535-2.093 4.535-4.651a4.665 4.665 0 0 0-4.651-4.651c-.349 0-.698.116-.93.116-1.047-1.395-2.559-2.442-4.419-2.442zm-.116 6.28h.465c1.279.115 2.325 1.046 3.023 2.092.116.233.116.698-.116.814-.233.116-.698.116-.814-.116-.582-.814-1.395-1.512-2.21-1.628-.813-.116-1.744.232-2.674 1.628-.116.349-.581.349-.814.232-.349-.116-.349-.581-.116-.814.93-1.511 2.093-2.093 3.256-2.209z"/></svg>